<svg width="24" height="24" viewBox="0 0 24 24" fill="none" xmlns="http://www.w3.org/2000/svg">
<path d="M2.00156 21.9984C2.00156 23.1 2.89688 24 4.00313 24H20.0016C21.1031 24 22.0031 23.1047 22.0031 21.9984V9H2.00156V21.9984ZM17.0016 12H19.0031V21H17.0016V12ZM11.0016 12H13.0031V21H11.0016V12ZM5.00156 12H7.00312V21H5.00156V12ZM23.0016 3.99844H17.0016V2.00156C17.0016 0.895313 16.1016 0 15 0H9C7.89844 0 6.99844 0.895313 6.99844 2.00156V4.00313H0.998437C0.445312 3.99844 0 4.44844 0 5.00156V6C0 6.55313 0.445312 6.99844 0.998437 6.99844H22.9969C23.55 6.99844 23.9953 6.55313 23.9953 6V5.00156C24 4.44844 23.5547 3.99844 23.0016 3.99844ZM15 3.99844H9V2.00156H15V3.99844Z" fill="#F56464"/>
</svg>
